<?xml version="1.0" encoding="utf-8"?>
<!-- Generator: Adobe Illustrator 23.0.1, SVG Export Plug-In . SVG Version: 6.00 Build 0)  -->
<svg version="1.1" id="Capa_2" xmlns="http://www.w3.org/2000/svg" xmlns:xlink="http://www.w3.org/1999/xlink" x="0px" y="0px"
	 viewBox="0 0 334.38 80" style="enable-background:new 0 0 334.38 80;" xml:space="preserve">
<style type="text/css">
	.st0{fill:#0066AD;}
	.st1{fill:#FFFFFF;}
</style>
<g>
	<circle class="st0" cx="40" cy="40" r="40"/>
	<g>
		<path class="st1" d="M43.15,30.26c-0.89,1.67-2.33,3.25-4.33,4.76l6.19,6.59c2.8-2.26,4.7-4.62,5.96-6.89L43.15,30.26z"/>
		<path class="st1" d="M43.27,21.3c0.64,1.56,1.03,3.16,1.01,4.73c0,0.07-0.01,0.13-0.02,0.2l8.84,2.19
			c0.11-0.81,0.17-1.58,0.18-2.29c0.04-3.37-0.85-6.6-2.26-9.56L43.27,21.3z"/>
		<path class="st1" d="M35.44,53.38c0.15-2.88,2.02-5.8,5.55-8.71l-6.14-6.59c-5.28,4.5-8.11,9.47-8.4,14.82
			c-0.39,7.37,3.98,14.92,13.37,23.07l5.9-6.8C38.67,63.05,35.21,57.73,35.44,53.38z"/>
		<path class="st1" d="M41.04,17.35l6.83-5.89c-2.12-2.8-4.6-5.16-6.93-6.86l-5.31,7.27C37.52,13.24,39.47,15.17,41.04,17.35z"/>
	</g>
	<g>
		<path class="st0" d="M95.78,45.72c0.25,3.17,3.37,4.68,6.94,4.68c2.62,0,4.73-0.35,6.79-1.01l1.01,5.18
			c-2.52,1.01-5.59,1.51-8.91,1.51c-8.35,0-13.13-4.83-13.13-12.53c0-6.24,3.88-13.13,12.43-13.13c7.95,0,10.97,6.19,10.97,12.28
			c0,1.31-0.15,2.47-0.25,3.02H95.78z M104.79,40.48c0-1.86-0.81-4.98-4.33-4.98c-3.22,0-4.53,2.92-4.73,4.98H104.79z"/>
		<path class="st0" d="M115.66,38.82c0-3.07-0.1-5.69-0.2-7.85h6.64l0.35,3.37h0.15c1.01-1.56,3.52-3.93,7.6-3.93
			c5.03,0,8.81,3.32,8.81,10.57v14.59h-7.65V41.94c0-3.17-1.11-5.33-3.87-5.33c-2.11,0-3.37,1.46-3.88,2.87
			c-0.2,0.45-0.3,1.21-0.3,1.91v14.19h-7.65V38.82z"/>
		<path class="st0" d="M169.51,54.62c-1.41,0.7-4.58,1.46-8.71,1.46c-11.73,0-17.76-7.3-17.76-16.96c0-11.57,8.25-18.02,18.52-18.02
			c3.98,0,7,0.81,8.35,1.51l-1.56,6.09c-1.56-0.65-3.72-1.26-6.44-1.26c-6.09,0-10.82,3.67-10.82,11.22
			c0,6.79,4.03,11.07,10.87,11.07c2.32,0,4.88-0.5,6.39-1.11L169.51,54.62z"/>
		<path class="st0" d="M196.84,43c0,9.01-6.39,13.13-12.98,13.13c-7.2,0-12.73-4.73-12.73-12.68s5.23-13.03,13.13-13.03
			C191.8,30.42,196.84,35.6,196.84,43z M179.02,43.25c0,4.23,1.76,7.4,5.03,7.4c2.97,0,4.88-2.97,4.88-7.4c0-3.67-1.41-7.4-4.88-7.4
			C180.38,35.85,179.02,39.63,179.02,43.25z"/>
		<path class="st0" d="M200.76,19.85h7.65v35.73h-7.65V19.85z"/>
		<path class="st0" d="M237,47.68c0,3.22,0.1,5.84,0.2,7.9h-6.64l-0.35-3.47h-0.15c-0.96,1.51-3.27,4.03-7.7,4.03
			c-4.98,0-8.66-3.12-8.66-10.72V30.97h7.7v13.24c0,3.57,1.16,5.74,3.82,5.74c2.11,0,3.32-1.46,3.82-2.67
			c0.2-0.45,0.25-1.06,0.25-1.66V30.97h7.7V47.68z"/>
		<path class="st0" d="M242.33,38.82c0-3.07-0.1-5.69-0.2-7.85h6.44l0.35,3.32h0.15c1.06-1.56,3.22-3.88,7.45-3.88
			c3.17,0,5.69,1.61,6.74,4.18h0.1c0.91-1.26,2.01-2.26,3.17-2.97c1.36-0.81,2.87-1.21,4.68-1.21c4.73,0,8.3,3.32,8.3,10.67v14.49
			h-7.45V42.19c0-3.57-1.16-5.64-3.62-5.64c-1.76,0-3.02,1.21-3.52,2.67c-0.2,0.55-0.3,1.36-0.3,1.96v14.39h-7.45V41.79
			c0-3.12-1.11-5.23-3.52-5.23c-1.96,0-3.12,1.51-3.57,2.77c-0.25,0.6-0.3,1.31-0.3,1.91v14.34h-7.45V38.82z"/>
		<path class="st0" d="M284.81,38.82c0-3.07-0.1-5.69-0.2-7.85h6.64l0.35,3.37h0.15c1.01-1.56,3.52-3.93,7.6-3.93
			c5.03,0,8.81,3.32,8.81,10.57v14.59h-7.65V41.94c0-3.17-1.11-5.33-3.88-5.33c-2.11,0-3.37,1.46-3.88,2.87
			c-0.2,0.45-0.3,1.21-0.3,1.91v14.19h-7.65V38.82z"/>
		<path class="st0" d="M327.48,55.58l-0.45-2.47h-0.15c-1.61,1.96-4.13,3.02-7.05,3.02c-4.98,0-7.95-3.62-7.95-7.55
			c0-6.39,5.74-9.46,14.44-9.41v-0.35c0-1.31-0.71-3.17-4.48-3.17c-2.52,0-5.18,0.86-6.79,1.86l-1.41-4.93
			c1.71-0.96,5.08-2.16,9.56-2.16c8.2,0,10.82,4.83,10.82,10.62v8.56c0,2.37,0.1,4.63,0.35,5.99H327.48z M326.58,43.95
			c-4.03-0.05-7.15,0.91-7.15,3.87c0,1.96,1.31,2.92,3.02,2.92c1.91,0,3.47-1.26,3.98-2.82c0.1-0.4,0.15-0.86,0.15-1.31V43.95z"/>
	</g>
</g>
</svg>
