<?xml version="1.0" encoding="utf-8"?>
<!-- Generator: Adobe Illustrator 23.0.1, SVG Export Plug-In . SVG Version: 6.00 Build 0)  -->
<svg version="1.1" id="Capa_2" xmlns="http://www.w3.org/2000/svg" xmlns:xlink="http://www.w3.org/1999/xlink" x="0px" y="0px"
	 viewBox="0 0 334.38 80" style="enable-background:new 0 0 334.38 80;" xml:space="preserve">
<style type="text/css">
	.st0{fill:#FFFFFF;}
</style>
<g>
	<path class="st0" d="M40,0C17.91,0,0,17.91,0,40c0,22.09,17.91,40,40,40s40-17.91,40-40C80,17.91,62.09,0,40,0z M40.94,4.6
		c2.33,1.7,4.8,4.06,6.93,6.86l-6.83,5.89c-1.57-2.18-3.51-4.1-5.4-5.48L40.94,4.6z M39.82,75.97c-9.39-8.15-13.76-15.7-13.37-23.07
		c0.28-5.35,3.11-10.32,8.4-14.82l6.14,6.59c-3.53,2.91-5.4,5.83-5.55,8.71c-0.23,4.35,3.23,9.67,10.28,15.79L39.82,75.97z
		 M45.01,41.62l-6.19-6.59c2-1.51,3.44-3.09,4.33-4.76l7.81,4.46C49.7,37.01,47.81,39.36,45.01,41.62z M53.1,28.42l-8.84-2.19
		c0-0.07,0.02-0.13,0.02-0.2c0.02-1.57-0.36-3.17-1.01-4.73l7.75-4.73c1.41,2.95,2.3,6.18,2.26,9.56
		C53.27,26.84,53.21,27.61,53.1,28.42z"/>
	<path class="st0" d="M100.91,30.42c-8.55,0-12.43,6.89-12.43,13.13c0,7.7,4.78,12.53,13.13,12.53c3.32,0,6.39-0.5,8.91-1.51
		l-1.01-5.18c-2.06,0.65-4.18,1.01-6.79,1.01c-3.57,0-6.69-1.51-6.94-4.68h15.85c0.1-0.55,0.25-1.71,0.25-3.02
		C111.88,36.61,108.86,30.42,100.91,30.42z M95.73,40.48c0.2-2.06,1.51-4.98,4.73-4.98c3.52,0,4.33,3.12,4.33,4.98H95.73z"/>
	<path class="st0" d="M130.2,30.42c-4.08,0-6.59,2.37-7.6,3.93h-0.15l-0.35-3.37h-6.64c0.1,2.16,0.2,4.78,0.2,7.85v16.76h7.65V41.39
		c0-0.7,0.1-1.46,0.3-1.91c0.5-1.41,1.76-2.87,3.88-2.87c2.77,0,3.87,2.16,3.87,5.33v13.64h7.65V40.98
		C139.01,33.74,135.23,30.42,130.2,30.42z"/>
	<path class="st0" d="M161.91,27.45c2.72,0,4.88,0.6,6.44,1.26l1.56-6.09c-1.36-0.7-4.38-1.51-8.35-1.51
		c-10.27,0-18.52,6.44-18.52,18.02c0,9.66,6.04,16.96,17.76,16.96c4.13,0,7.3-0.75,8.71-1.46l-1.16-5.99
		c-1.51,0.6-4.08,1.11-6.39,1.11c-6.84,0-10.87-4.28-10.87-11.07C151.09,31.12,155.82,27.45,161.91,27.45z"/>
	<path class="st0" d="M184.25,30.42c-7.9,0-13.13,5.08-13.13,13.03s5.54,12.68,12.73,12.68c6.59,0,12.98-4.13,12.98-13.13
		C196.84,35.6,191.8,30.42,184.25,30.42z M184.05,50.65c-3.27,0-5.03-3.17-5.03-7.4c0-3.62,1.36-7.4,5.03-7.4
		c3.47,0,4.88,3.72,4.88,7.4C188.93,47.68,187.02,50.65,184.05,50.65z"/>
	<rect x="200.76" y="19.85" class="st0" width="7.65" height="35.73"/>
	<path class="st0" d="M237,30.97h-7.7v14.64c0,0.6-0.05,1.21-0.25,1.66c-0.5,1.21-1.71,2.67-3.82,2.67c-2.67,0-3.82-2.16-3.82-5.74
		V30.97h-7.7v14.44c0,7.6,3.67,10.72,8.66,10.72c4.43,0,6.74-2.52,7.7-4.03h0.15l0.35,3.47h6.64c-0.1-2.06-0.2-4.68-0.2-7.9V30.97z"
		/>
	<path class="st0" d="M271.22,30.42c-1.81,0-3.32,0.4-4.68,1.21c-1.16,0.7-2.26,1.71-3.17,2.97h-0.1c-1.06-2.57-3.57-4.18-6.74-4.18
		c-4.23,0-6.39,2.31-7.45,3.88h-0.15l-0.35-3.32h-6.44c0.1,2.16,0.2,4.78,0.2,7.85v16.76h7.45V41.24c0-0.6,0.05-1.31,0.3-1.91
		c0.45-1.26,1.61-2.77,3.57-2.77c2.42,0,3.52,2.11,3.52,5.23v13.79h7.45V41.19c0-0.6,0.1-1.41,0.3-1.96
		c0.5-1.46,1.76-2.67,3.52-2.67c2.47,0,3.62,2.06,3.62,5.64v13.39h7.45V41.09C279.52,33.74,275.95,30.42,271.22,30.42z"/>
	<path class="st0" d="M299.35,30.42c-4.08,0-6.59,2.37-7.6,3.93h-0.15l-0.35-3.37h-6.64c0.1,2.16,0.2,4.78,0.2,7.85v16.76h7.65
		V41.39c0-0.7,0.1-1.46,0.3-1.91c0.5-1.41,1.76-2.87,3.88-2.87c2.77,0,3.88,2.16,3.88,5.33v13.64h7.65V40.98
		C308.16,33.74,304.38,30.42,299.35,30.42z"/>
	<path class="st0" d="M334.03,49.59v-8.56c0-5.79-2.62-10.62-10.82-10.62c-4.48,0-7.85,1.21-9.56,2.16l1.41,4.93
		c1.61-1.01,4.28-1.86,6.79-1.86c3.77,0,4.48,1.86,4.48,3.17v0.35c-8.71-0.05-14.44,3.02-14.44,9.41c0,3.93,2.97,7.55,7.95,7.55
		c2.92,0,5.44-1.06,7.05-3.02h0.15l0.45,2.47h6.89C334.13,54.22,334.03,51.96,334.03,49.59z M326.58,46.62
		c0,0.45-0.05,0.91-0.15,1.31c-0.5,1.56-2.06,2.82-3.98,2.82c-1.71,0-3.02-0.96-3.02-2.92c0-2.97,3.12-3.92,7.15-3.87V46.62z"/>
</g>
</svg>
